# This file uses centimeters as units for non-parametric coordinates.

mtllib street_straight.mtl
v -500.017120 0.019511 69.137482
v 500.000061 0.019511 69.137482
v -500.016937 1600.000000 69.135468
v 499.999390 1600.000000 69.135468
v 500.000061 0.019513 80.297348
v 499.999390 1600.000000 80.295341
v 800.000366 0.019533 80.297348
v 799.999634 1600.000000 80.295341
v -500.017120 0.019513 80.297348
v -500.016937 1600.000000 80.295349
v -799.999817 1600.000000 80.295349
v -800.000000 0.019519 80.297348
vt 0.375000 0.250000
vt 0.625000 0.250000
vt 0.375000 0.500000
vt 0.625000 0.500000
vt 0.875000 0.250000
vt 0.125000 0.250000
vt 0.875000 0.250000
vt 0.625000 0.250000
vt 0.625000 0.250000
vt 0.875000 0.250000
vt 0.375000 0.250000
vt 0.125000 0.250000
vt 0.125000 0.250000
vt 0.375000 0.250000
vn 0.000000 0.000001 1.000000
vn 0.000000 0.000001 1.000000
vn 0.000000 0.000001 1.000000
vn 0.000000 0.000001 1.000000
vn 0.000000 0.000001 1.000000
vn 0.000000 0.000001 1.000000
vn 0.000000 0.000001 1.000000
vn 0.000000 0.000001 1.000000
vn -1.000000 -0.000000 0.000000
vn -1.000000 -0.000000 0.000000
vn -1.000000 -0.000000 0.000000
vn -1.000000 -0.000000 0.000000
vn 0.000000 0.000001 1.000000
vn 0.000000 0.000001 1.000000
vn 0.000000 0.000001 1.000000
vn 0.000000 0.000001 1.000000
vn 1.000000 -0.000000 0.000000
vn 1.000000 -0.000000 0.000000
vn 1.000000 -0.000000 0.000000
vn 1.000000 -0.000000 0.000000
g pCube1 group1
usemtl initialShadingGroup
f 1/1/1 2/2/2 4/4/3 3/3/4
f 6/7/5 5/8/6 7/9/7 8/10/8
f 4/5/9 2/2/10 5/8/11 6/7/12
f 9/11/13 10/12/14 11/13/15 12/14/16
f 1/1/17 3/6/18 10/12/19 9/11/20
