# This file uses centimeters as units for non-parametric coordinates.

mtllib street_detail_outer_curve.mtl
v -800.000000 -1600.000000 80.297348
v 0.000000 -1600.000000 80.297348
v -800.000000 -800.000000 80.297348
v -400.000000 -1600.000000 80.297348
v -800.000000 -1200.000000 80.297348
v -346.264832 -1146.257080 80.297340
v -800.000000 -1400.000000 80.297348
v -600.000000 -1600.000000 80.297348
v -269.692871 -1204.535889 80.297363
v -404.541504 -1069.687988 80.297363
v -153.642395 -1260.926025 80.297363
v -200.000000 -1600.000000 80.297348
v 0.000305 -1299.682861 80.297363
v -460.927307 -953.640198 80.297363
v -499.682861 -799.982910 80.297363
v -800.000000 -1000.000000 80.297348
v 0.000305 -1133.121338 69.137512
v -153.642395 -1107.281494 69.137512
v 0.000305 -966.560913 69.137512
v -153.642395 -953.640198 69.137512
v -333.121826 -799.982910 69.137512
v -307.284912 -953.640198 69.137512
v -499.682861 -799.982910 69.137512
v -460.927307 -953.640198 69.137512
v -269.692871 -1204.535889 69.137512
v -269.692871 -1069.687866 69.137512
v -404.541504 -1069.687988 69.137512
v -346.264832 -1146.257202 69.137466
v 0.000305 -1299.682861 69.137512
v -153.642395 -1260.926025 69.137512
v 0.000000 -800.000000 69.137512
v -166.560883 -799.982910 69.137512
vt 0.000000 0.000000
vt 1.000000 0.000000
vt 0.000000 1.000000
vt 0.500000 0.500000
vt 0.500000 0.000000
vt 0.000000 0.500000
vt 0.250000 0.250000
vt 0.000000 0.250000
vt 0.250000 0.000000
vt 0.500000 0.250000
vt 0.250000 0.500000
vt 0.750000 0.250000
vt 0.750000 0.000000
vt 1.000000 0.250000
vt 0.750000 0.500000
vt 0.750000 0.750000
vt 0.500000 0.750000
vt 0.250000 0.750000
vt 0.250000 1.000000
vt 0.000000 0.750000
vt 1.000000 0.500000
vt 1.000000 0.750000
vt 0.500000 1.000000
vt 0.250000 1.000000
vt 0.250000 0.750000
vt 0.250000 0.500000
vt 0.250000 0.250000
vt 0.500000 0.250000
vt 1.000000 0.250000
vt 0.750000 0.250000
vt 1.000000 1.000000
vt 0.750000 1.000000
vn 0.000000 -0.000000 1.000000
vn 0.000000 -0.000000 1.000000
vn 0.000000 -0.000000 1.000000
vn 0.000000 -0.000000 1.000000
vn -0.000000 -0.000000 1.000000
vn -0.000000 -0.000000 1.000000
vn -0.000000 -0.000000 1.000000
vn -0.000000 -0.000000 1.000000
vn 0.000000 0.000000 1.000000
vn 0.000000 0.000000 1.000000
vn 0.000000 0.000000 1.000000
vn 0.000000 0.000000 1.000000
vn 0.000000 0.000000 1.000000
vn 0.000000 0.000000 1.000000
vn 0.000000 0.000000 1.000000
vn 0.000000 0.000000 1.000000
vn 0.000000 0.000000 1.000000
vn 0.000000 0.000000 1.000000
vn 0.000000 0.000000 1.000000
vn 0.000000 0.000000 1.000000
vn -0.000000 0.000000 1.000000
vn -0.000000 0.000000 1.000000
vn -0.000000 0.000000 1.000000
vn -0.000000 0.000000 1.000000
vn -0.000000 -0.000000 1.000000
vn -0.000000 -0.000000 1.000000
vn -0.000000 -0.000000 1.000000
vn -0.000000 -0.000000 1.000000
vn -0.000000 -0.000000 1.000000
vn -0.000000 -0.000000 1.000000
vn -0.000000 -0.000000 1.000000
vn -0.000000 -0.000000 1.000000
vn 0.000000 0.000000 1.000000
vn 0.000000 0.000000 1.000000
vn 0.000000 0.000000 1.000000
vn 0.000000 0.000000 1.000000
vn 0.000000 0.000000 1.000000
vn 0.000000 0.000000 1.000000
vn 0.000000 0.000000 1.000000
vn 0.000000 0.000000 1.000000
vn 0.000000 -0.000000 1.000000
vn 0.000000 -0.000000 1.000000
vn 0.000000 -0.000000 1.000000
vn 0.000000 -0.000000 1.000000
vn 0.000000 -0.000000 1.000000
vn 0.000000 -0.000000 1.000000
vn 0.000000 -0.000000 1.000000
vn 0.000000 -0.000000 1.000000
vn 0.000000 0.000000 1.000000
vn 0.000000 0.000000 1.000000
vn 0.000000 0.000000 1.000000
vn 0.000000 0.000000 1.000000
vn -0.000000 0.000000 1.000000
vn -0.000000 0.000000 1.000000
vn -0.000000 0.000000 1.000000
vn -0.000000 0.000000 1.000000
vn -0.000000 0.000000 1.000000
vn -0.000000 0.000000 1.000000
vn -0.000000 0.000000 1.000000
vn -0.000000 0.000000 1.000000
vn 0.000000 -0.000000 1.000000
vn 0.000000 -0.000000 1.000000
vn 0.000000 -0.000000 1.000000
vn 0.000000 -0.000000 1.000000
vn 0.969634 0.244562 -0.000000
vn 0.939483 0.342597 -0.000000
vn 0.939483 0.342597 -0.000000
vn 0.969634 0.244562 -0.000000
vn 0.851777 0.523905 -0.000002
vn 0.707107 0.707107 -0.000004
vn 0.707107 0.707107 -0.000004
vn 0.851777 0.523905 -0.000002
vn 0.523914 0.851771 -0.000002
vn 0.523914 0.851771 -0.000002
vn 0.342621 0.939474 -0.000000
vn 0.244591 0.969626 -0.000000
vn 0.244591 0.969626 -0.000000
vn 0.342621 0.939474 -0.000000
g pPlane2 group1
usemtl initialShadingGroup
f 10/11/1 5/6/2 7/8/3 6/7/4
f 9/10/5 4/5/6 12/13/7 11/12/8
f 18/15/9 17/21/10 19/22/11 20/16/12
f 22/17/13 21/23/14 23/24/15 24/25/16
f 7/8/17 1/1/18 8/9/19 6/7/20
f 8/9/21 4/5/22 9/10/23 6/7/24
f 25/28/25 26/4/26 27/26/27 28/27/28
f 12/13/29 2/2/30 13/14/31 11/12/32
f 29/29/33 17/21/34 18/15/35 30/30/36
f 18/15/37 26/4/38 25/28/39 30/30/40
f 19/22/41 31/31/42 32/32/43 20/16/44
f 32/32/45 21/23/46 22/17/47 20/16/48
f 22/17/49 26/4/50 18/15/51 20/16/52
f 15/19/53 3/3/54 16/20/55 14/18/56
f 16/20/57 5/6/58 10/11/59 14/18/60
f 27/26/61 26/4/62 22/17/63 24/25/64
f 15/19/65 14/18/66 24/25/67 23/24/68
f 10/11/69 6/7/70 28/27/71 27/26/72
f 6/7/70 9/10/73 25/28/74 28/27/71
f 11/12/75 13/14/76 29/29/77 30/30/78
f 9/10/73 11/12/75 30/30/78 25/28/74
f 14/18/66 10/11/69 27/26/72 24/25/67
